# xmcd
#
# Track frame offsets: 
#        150
#        10710
#        28447
#        42415
#        58224
#        71743
#        85732
#        96567
#        107208
#        122402
#        135276
#        153644
#
# Disc length: 2216 seconds
#
# Revision: 0
# Processed by: cddbd v1.4PL0 Copyright (c) Steve Scherf et al.
# Submitted via: ExactAudioCopy v0.90a11
#
DISCID=a508a60c
DTITLE=Kittie - Spit
DYEAR=1900
DGENRE=
TTITLE0=Spit
TTITLE1=Charlotte
TTITLE2=Suck
TTITLE3=Do You Think I'm a Whore?
TTITLE4=Brackish
TTITLE5=Jonny
TTITLE6=Trippin'
TTITLE7=Raven
TTITLE8=Get Off (You Can Eat a Dick)
TTITLE9=Choke
TTITLE10=Paperdoll
TTITLE11=Immortal
EXTD=
EXTT0=
EXTT1=
EXTT2=
EXTT3=
EXTT4=
EXTT5=
EXTT6=
EXTT7=
EXTT8=
EXTT9=
EXTT10=
EXTT11=
PLAYORDER=
